# xmcd
#
# Track frame offsets:
#	150
#	13843
#	27169
#	48865
#	71646
#	82694
#	94895
#	106768
#	115834
#	128647
#	145237
#	171305
#	188871
#	208283
#	220009
#	230718
#	243606
#	256219
#	271662
#
# Disc length: 3982 seconds
#
# Revision: 2
# Processed by: cddbd v1.5.2PL0 Copyright (c) Steve Scherf et al.
# Submitted via: audiograbber 1.83.01
#
DISCID=090f8c13
DTITLE=B B King - Live and Otherwise
DYEAR=2001
DGENRE=Blues
TTITLE0=3 O'clock Blues
TTITLE1=Woke Up This Morning (My Baby She Was Gone)
TTITLE2=The Thrill Is Gone
TTITLE3=Every Day I Have Blues
TTITLE4=B.B. Blues
TTITLE5=Miss Martha King
TTITLE6=Paying the Cost to the Boss
TTITLE7=My Baby's Gone
TTITLE8=Mistreated Woman
TTITLE9=The Other Night Blues
TTITLE10=Guess Who
TTITLE11=That Evil Child
TTITLE12=Sweet Sixteen
TTITLE13=Shake It Up and Go
TTITLE14=Fine Lookin' Woman 
TTITLE15=Please Love Me
TTITLE16=Got the Blues
TTITLE17=How Blue Can You Get
TTITLE18=Sweet Little Angel
EXTD=
EXTT0=
EXTT1=
EXTT2=
EXTT3=
EXTT4=
EXTT5=
EXTT6=
EXTT7=
EXTT8=
EXTT9=
EXTT10=
EXTT11=
EXTT12=
EXTT13=
EXTT14=
EXTT15=
EXTT16=
EXTT17=
EXTT18=
PLAYORDER=
